<svg data-bbox="0 0.001 223 61.149" viewBox="0 0.001 223 61.149" xmlns="http://www.w3.org/2000/svg" data-type="color" aria-hidden="true" aria-labelledby="svgcid--8a5trx-jhxts1"><g style="isolation:isolate"><path d="M63.81 47.43H56c-.06 0-.08 0-.08.08v4.73c0 .06 0 .09.08.09h5.37a.2.2 0 0 1 .22.22v1.39a.2.2 0 0 1-.22.22H56c-.06 0-.08 0-.08.09v4.84s0 .08.08.08h7.81a.2.2 0 0 1 .22.22v1.39a.19.19 0 0 1-.22.22H54a.2.2 0 0 1-.22-.22v-15a.2.2 0 0 1 .22-.18h9.79a.19.19 0 0 1 .22.22v1.39a.2.2 0 0 1-.2.22zM74.13 60.82l-4.71-15v-.09c0-.1.07-.15.2-.15h1.78a.27.27 0 0 1 .27.18l3.62 12.16s0 .05.07.05 0 0 .07-.05L79 45.78a.24.24 0 0 1 .24-.18H81c.16 0 .22.08.17.24l-4.75 15a.25.25 0 0 1-.26.18H74.4a.25.25 0 0 1-.27-.2zM96.79 47.43H89c-.06 0-.09 0-.09.08v4.73a.08.08 0 0 0 .09.09h5.37a.2.2 0 0 1 .22.22v1.39a.2.2 0 0 1-.22.22H89a.08.08 0 0 0-.09.09v4.84s0 .08.09.08h7.81a.2.2 0 0 1 .22.22v1.39a.19.19 0 0 1-.22.22H87a.19.19 0 0 1-.22-.22v-15a.19.19 0 0 1 .22-.18h9.79a.19.19 0 0 1 .22.22v1.39a.2.2 0 0 1-.22.22zM112.52 45.6h1.67a.19.19 0 0 1 .22.22v15a.19.19 0 0 1-.22.22h-1.6a.33.33 0 0 1-.27-.15l-6.88-11.29s0-.06-.07-.05 0 0 0 .08v11.15a.2.2 0 0 1-.22.22h-1.67a.19.19 0 0 1-.22-.22v-15a.19.19 0 0 1 .22-.22h1.62a.33.33 0 0 1 .27.15L112.21 57s0 .06.07 0 0 0 0-.08V45.77a.19.19 0 0 1 .24-.17zM131.35 45.82v1.41a.19.19 0 0 1-.22.22h-4.22a.08.08 0 0 0-.09.09v13.24a.19.19 0 0 1-.22.22h-1.67a.19.19 0 0 1-.22-.22V47.54a.08.08 0 0 0-.09-.09h-4c-.14 0-.21-.07-.21-.22v-1.41c0-.15.07-.22.21-.22h10.54a.19.19 0 0 1 .19.22zM139 60.65a4.29 4.29 0 0 1-1.92-1.5 3.91 3.91 0 0 1-.67-2.26v-.64a.2.2 0 0 1 .22-.22h1.61a.2.2 0 0 1 .22.22v.53a2.2 2.2 0 0 0 1 1.84 4.29 4.29 0 0 0 2.66.73 3.51 3.51 0 0 0 2.29-.64 2.06 2.06 0 0 0 .77-1.67 1.84 1.84 0 0 0-.4-1.17 3.79 3.79 0 0 0-1.18-.87c-.51-.27-1.25-.59-2.22-1a22.35 22.35 0 0 1-2.54-1.12 4.75 4.75 0 0 1-1.55-1.33 3.38 3.38 0 0 1-.61-2.08 3.6 3.6 0 0 1 1.35-3 5.7 5.7 0 0 1 3.66-1.08 7 7 0 0 1 2.86.55 4.46 4.46 0 0 1 1.91 1.54 4.05 4.05 0 0 1 .67 2.29v.44a.2.2 0 0 1-.22.22h-1.65a.19.19 0 0 1-.22-.22v-.33a2.37 2.37 0 0 0-.92-1.9 3.81 3.81 0 0 0-2.52-.76 3.51 3.51 0 0 0-2.11.56 1.89 1.89 0 0 0-.75 1.62 1.84 1.84 0 0 0 .38 1.19 3.34 3.34 0 0 0 1.11.82c.49.24 1.24.56 2.25.94a24.5 24.5 0 0 1 2.52 1.16 4.74 4.74 0 0 1 1.61 1.36 3.45 3.45 0 0 1 .64 2.1 3.71 3.71 0 0 1-1.41 3.03 6.09 6.09 0 0 1-3.91 1.14 7.48 7.48 0 0 1-2.93-.49z" data-color="1"/></g><path d="M35.43 22.47c-2.87 2.45-1.67 6.31-.43 8.53 1.48 2.74-.41 6.76-3 9a21.38 21.38 0 0 0 10.77-17.94 6.47 6.47 0 0 0-7.34.41z" fill="#00b9af" data-color="2"/><path d="M20.43 28.62c-4.12-3.5-7.73-1.8-10.2 1.09s.95 3.81 5.65 4.87c3.54.81 3.1 5.62 3.43 6.71 4.23-6.84 3.01-11.07 1.12-12.67z" fill="#93c950" data-color="3"/><path d="M27.06 7.31c7 5.46.85 8.25.85 8.25 4 3.39 8-3.11 12.37.61a9 9 0 0 1 2.43 3.45A21.39 21.39 0 0 0 27.58.92c-3.24 1.41-4.53 3.27-.52 6.39z" fill="#00b5e9" data-color="4"/><path d="M10.07 26.14c-1.59-4.36.44-6.37 7.36-11.3 8.76-6.23-4.93-4 .64-9.63 2-2 4.75-3.53 6.79-4.92A21.36 21.36 0 0 0 0 21.39c0 .48 0 .95.05 1.41 3.23 2.99 7.23 4.93 10.02 3.34z" fill="#00a766" data-color="5"/><g><path d="M53.89 9.53h8.94c3.65 0 6.9 0 8.85 2.8a8.65 8.65 0 0 1 1.26 4.57 8 8 0 0 1-.76 3.46c-1.92 4-6 4.06-9 4.12h-3.72v7.28h-5.57zm5.57 4.09v6.74h3.34c2.08 0 4.6-.06 4.6-3.49 0-3.25-2.8-3.25-4.41-3.25zM76 9.5h10c2.34 0 5.24.06 7.29 2.27a7.51 7.51 0 0 1 1.76 4.95c0 4.48-3.06 5.58-4.57 6.15l5.14 8.89h-6.14l-4.41-8h-3.5v8H76zm5.58 4.16v6h4.61c.78 0 3.34-.09 3.34-3.06s-2.05-2.93-3.22-3zM108.68 32.39c-7.05 0-11.05-5.42-11.05-11.84 0-6 3.81-11.71 11-11.71a12.27 12.27 0 0 1 4.07.66c6.8 2.36 7.24 9.76 7.24 11.27a12.09 12.09 0 0 1-4.22 9.29 10.68 10.68 0 0 1-7.04 2.33zm3.84-17.29a5.4 5.4 0 0 0-3.9-1.63c-3.37 0-5.51 3-5.51 7 0 5.29 3 7.24 5.57 7.24s5.48-1.89 5.64-6.55a8.68 8.68 0 0 0-1.8-6.06zM150 32.33c-6.77 0-11.11-4.76-11.11-11.68C138.9 12.4 144.6 9 150.11 9c6.23 0 11.18 4.22 11.18 11.47 0 6.63-3.91 11.86-11.29 11.86zm.1-21c-5.6 0-8 4.31-8 9.32 0 4.66 2.3 9.32 8 9.32 6 0 8-5 7.93-9.54 0-5.39-2.83-9.1-8-9.1zM192.54 9.5v22.26h-3V9.5zM205 21.54c-3.21-.66-7.93-1.73-7.93-6.33a5.58 5.58 0 0 1 2-4.31 8.92 8.92 0 0 1 6-1.89 9.93 9.93 0 0 1 6 1.64 7.43 7.43 0 0 1 2.86 5.22l-3 .19a4.54 4.54 0 0 0-1.8-3.68 6.6 6.6 0 0 0-4-1.07c-2.68 0-5 1.1-5 3.49s2.45 3 4.37 3.47l2.46.63a22.42 22.42 0 0 1 3.5 1 5.76 5.76 0 0 1 3.84 5.55 6.27 6.27 0 0 1-2.83 5.38 10.82 10.82 0 0 1-6 1.57c-2 0-8.91-.31-9.41-7.65l3.18-.41A5.7 5.7 0 0 0 201 28.6a6.84 6.84 0 0 0 4.56 1.48c3.15 0 5.54-1.55 5.54-4.44 0-2.59-2-3.28-4.21-3.72zM164.48 20.63A11.25 11.25 0 0 1 175.32 9h.76a10.7 10.7 0 0 1 8.75 4.19l-2.23 1.42a8.29 8.29 0 0 0-6.52-3.11c-4.94 0-8.69 3.75-8.69 9.15s3.75 9.16 8.69 9.16a8.85 8.85 0 0 0 6.08-2.43v-4.87h-6.38V20h9.15v8.4a11.63 11.63 0 0 1-8.85 3.92 11.31 11.31 0 0 1-11.6-11c-.01-.22 0-.45 0-.69zM126.23 29.11h11.63v2.65h-14.59V9.5h3zM220.25 14.55a2.74 2.74 0 1 1 2.75-2.73 2.74 2.74 0 0 1-2.75 2.73zm0-5.05a2.32 2.32 0 1 0 2.3 2.33 2.32 2.32 0 0 0-2.3-2.32z" data-color="1"/><path d="M219.21 10.25h1a1.31 1.31 0 0 1 .94.22.91.91 0 0 1 .34.75.83.83 0 0 1-.6.84l.68 1.24h-.65l-.61-1.13h-.51v1.13h-.57zm.57.49v1h.57a.49.49 0 0 0 .54-.41v-.06a.43.43 0 0 0-.24-.41 1.4 1.4 0 0 0-.61-.07z" data-color="1"/></g></svg>